{"title":"The Choice (2016) BRRIP 1080P NO CINAVIA","uid":14633045,"size":2286241250,"categoryP":"video","categoryS":"hd___movies","magnet":"?xt=urn:btih:15d7f10bea661baab4c5b3eb06adc3dc2e9b90e5&amp;dn=The+Choice+%282016%29+BRRIP+1080P+NO+CINAVIA&amp;tr=udp%3A%2F%2Ftracker.leechers-paradise.org%3A6969&amp;tr=udp%3A%2F%2Fzer0day.ch%3A1337&amp;tr=udp%3A%2F%2Fopen.demonii.com%3A1337&amp;tr=udp%3A%2F%2Ftracker.coppersurfer.tk%3A6969&amp;tr=udp%3A%2F%2Fexodus.desync.com%3A6969","seeders":5,"leechers":0,"uploader":"jmanwf","files":3,"time":1463379933,"description":"Storyline\r\n\r\nTravis and Gabby first meet as neighbors in a small coastal town and wind up in a relationship that is tested by life's most defining events.\r\n\r\n\r\n\r\nVideo\r\nID : 1\r\nFormat : AVC\r\nFormat/Info : Advanced Video Codec\r\nFormat profile :   \r\nFormat settings, CABAC : Yes\r\nFormat settings, ReFrames : 4 frames\r\nCodec ID : avc1\r\nCodec ID/Info : Advanced Video Coding\r\nDuration : 1h 51mn\r\nBit rate : 2 500 Kbps\r\nWidth : 1 920 pixels\r\nHeight : 800 pixels\r\nDisplay aspect ratio : 2.40:1\r\nFrame rate mode : Constant\r\nFrame rate : 23.976 (23976/1000) fps\r\nColor space : YUV\r\nChroma subsampling : 4:2:0\r\nBit depth : 8 bits\r\nScan type : Progressive\r\nBits/(Pixel*Frame) : 0.068\r\nStream size : 1.94 GiB (92%)\r\n\r\nAudio\r\nID : 2\r\nFormat : AAC\r\nFormat/Info : Advanced Audio Codec\r\nFormat profile : LC\r\nCodec ID : 40\r\nDuration : 1h 51mn\r\nBit rate mode : Variable\r\nBit rate : 224 Kbps\r\nMaximum bit rate : 896 Kbps\r\nChannel(s) : 2 channels\r\nChannel(s)_Original : 6 channels\r\nChannel positions : Front: L C R, Side: L R, LFE\r\nSampling rate : 48.0 KHz\r\nFrame rate : 46.875 fps (1024 spf)\r\nCompression mode : Lossy\r\nStream size : 178 MiB (8%)\r\nLanguage : English\r\nDefault : Yes\r\nAlternate group : 1\r\nEncoded date : UTC 2016-04-21 08:06:02\r\nTagged date : UTC 2016-04-21 08:06:02\r\n\r\n\r\n \nhttp://www.imdb.com/title/tt3797868/\r\n\r\n\r\n \nhttp://s32.postimg.org/7f1tz2bv9/image.jpg\r\n\r\n\r\n \nhttp://s32.postimg.org/8fxhag3h1/image.jpg","torrent":{"xt":"urn:btih:15d7f10bea661baab4c5b3eb06adc3dc2e9b90e5","amp;dn":"The+Choice+%282016%29+BRRIP+1080P+NO+CINAVIA","amp;tr":["udp%3A%2F%2Ftracker.leechers-paradise.org%3A6969","udp%3A%2F%2Fzer0day.ch%3A1337","udp%3A%2F%2Fopen.demonii.com%3A1337","udp%3A%2F%2Ftracker.coppersurfer.tk%3A6969","udp%3A%2F%2Fexodus.desync.com%3A6969"],"infoHash":"15d7f10bea661baab4c5b3eb06adc3dc2e9b90e5","infoHashBuffer":{"type":"Buffer","data":[21,215,241,11,234,102,27,170,180,197,179,235,6,173,195,220,46,155,144,229]},"announce":[],"urlList":[]}}